 <svg xmlns="http://www.w3.org/2000/svg" width="400" height="300" viewBox="0 0 400 300">
   <rect width="400" height="300" fill="#2d241e"/>
   <rect x="0" y="210" width="400" height="90" fill="#1e1814"/>
   <line x1="80" y1="210" x2="80" y2="60" stroke="#e8874a" stroke-width="2" opacity="0.5"/>
   <line x1="320" y1="210" x2="320" y2="40" stroke="#e8874a" stroke-width="2" opacity="0.5"/>
   <rect x="90" y="100" width="60" height="60" fill="#e8874a" rx="2" opacity="0.8"/>
   <rect x="160" y="80" width="70" height="80" fill="#c8963e" rx="2" opacity="0.7"/>
   <rect x="240" y="90" width="55" height="70" fill="#d4763a" rx="2" opacity="0.75"/>
   <rect x="305" y="70" width="40" height="140" fill="#e8874a" rx="2" opacity="0.6"/>
   <rect x="80" y="50" width="280" height="2" fill="#e8874a" opacity="0.3"/>
   <circle cx="320" cy="30" r="6" fill="#e8874a" opacity="0.5"/>
   <line x1="320" y1="36" x2="320" y2="50" stroke="#e8874a" stroke-width="2" opacity="0.4"/>
   <rect x="110" y="108" width="20" height="8" fill="#1a1410" rx="1"/>
   <rect x="180" y="88" width="25" height="10" fill="#1a1410" rx="1"/>
   <rect x="260" y="98" width="15" height="8" fill="#1a1410" rx="1"/>
   <rect x="100" y="130" width="40" height="30" fill="#1a1410" rx="1" opacity="0.5"/>
   <text x="200" y="275" font-family="Arial,sans-serif" font-size="13" fill="#8a7a6e" text-anchor="middle">CUSTOM MODULAR BUILDINGS</text>
 </svg>
